<?xml version="1.0" encoding="utf-8"?>
<svg viewBox="0 0 500 500" xmlns="http://www.w3.org/2000/svg">
  <g id="layer1" transform="matrix(0, 0.222601, -0.222601, 0, -2602.121582, -51.244213)" style="transform-origin: 2851.27px 299.668px;">
    <path style="fill: rgb(213, 113, 139); fill-opacity: 1; stroke-width: 17.9694px; stroke: rgb(178, 71, 99);" d="M 2361.761 472.882 C 2331.595 483.637 2277.579 507.309 2286.12 536.885 C 2350.525 759.92 2467.893 508.782 2690.504 461.245 C 2889.616 418.726 3278.666 664.114 3336.355 568.887 C 3389.583 481.024 3065.828 437.971 2972.701 423.425 C 2914.634 414.355 2735.417 411.819 2641.047 420.516 C 2590.582 425.166 2459.512 438.031 2361.761 472.882 Z" id="path7352"/>
    <path style="fill: rgb(213, 113, 139); fill-opacity: 1; stroke-width: 17.9694px; stroke: rgb(178, 71, 99);" d="M 3481.817 533.976 C 3715.86 416.955 3344.955 353.24 2988.112 332.77 C 2812.888 322.719 2569.293 333.238 2542.133 333.238 C 2400.66 333.238 2147.66 323.328 2047.562 423.425 C 2001.142 469.845 2088.779 541.006 2143.568 513.611 C 2195.992 487.399 2412.722 410.186 2639.107 385.348 C 2891.154 357.695 3154.506 384.867 3202.53 408.879 C 3250.026 432.626 3417.504 566.133 3481.817 533.976 Z" id="path7381"/>
    <path style="fill: rgb(213, 113, 139); fill-opacity: 1; stroke-width: 17.9694px; stroke: rgb(178, 71, 99);" d="M 2143.568 219.778 C 2047.085 228.578 1668.807 269.634 1873.008 376.877 C 1983.205 434.751 2142.238 329.961 2225.233 302.296 C 2310.719 273.8 2453.3 267.156 2587.17 266.053 C 2721.041 264.951 3096.169 293.947 3182.319 302.895 C 3268.468 311.842 3352.628 323.147 3435.27 350.694 C 3451.974 356.262 3505.379 380.679 3557.361 400.951 C 3609.344 421.222 3657.692 434.562 3670.918 426.334 C 3756.801 372.909 3721.652 330.939 3679.971 296.346 C 3642.881 265.564 3591.129 234.324 3531.274 234.324 C 3307.634 234.324 3117.419 233.421 2890.359 223.951 C 2663.298 214.481 2399.391 196.444 2143.568 219.778 L 2143.568 219.778 Z" id="path7517"/>
    <path style="fill: rgb(213, 113, 139); fill-opacity: 1; stroke-width: 17.9694px; stroke: rgb(178, 71, 99);" d="M 2283.684 93.285 C 2214.288 86.659 1786.229 -6.675 1867.544 159.582 C 1901.322 228.647 2138.123 174.298 2204.794 174.882 C 2363.675 176.275 3461.219 215.436 3575.015 162.209 C 3723.718 92.655 3532.467 26.059 3440.439 25.252 C 3327.708 24.264 3231.366 138.624 3126.755 137.707 C 3024.662 136.811 2920.179 127.667 2814.154 126.737 C 2628.526 125.109 2471.274 111.197 2283.684 93.285 Z" id="path7587"/>
    <path style="fill: rgb(213, 113, 139); fill-opacity: 1; stroke-width: 17.9694px; stroke: rgb(178, 71, 99);" d="M 2829.134 19.883 C 2642.379 63.554 2237.829 -120.8 2187.306 7.54 C 2166.306 60.884 2451.922 75.426 2487.649 75.426 C 2649.057 75.426 2803.477 86.188 2964.906 85.712 C 3126.428 85.235 3255.926 38.657 3217.934 -13.031 C 3167.168 -82.1 3085.231 30.169 3010.162 30.169 C 2915.513 30.169 2910.129 12.506 2938.041 8.046 C 2962.089 4.204 2984.994 -13.385 2957.706 -27.431 C 2943.106 -34.946 2905.314 -38.069 2876.975 -39.057 C 2848.637 -40.046 2830.923 -40.092 2805.477 -31.545 C 2778.76 -22.572 2778.256 -8.228 2793.162 2.947 C 2810.946 16.279 2837.649 17.892 2829.134 19.883 Z" id="path7601"/>
    <path style="fill: rgb(213, 113, 139); fill-opacity: 1; stroke-width: 17.9694px; stroke: rgb(178, 71, 99);" d="M 2057.745 615.435 C 1989.182 614.156 1963.155 589.041 1913.737 638.709 C 1843.394 709.408 2090.266 788.015 2204.662 673.62 C 2237.263 641.017 2091.528 616.065 2057.745 615.435 Z" id="path7719"/>
    <path style="fill: rgb(213, 113, 139); fill-opacity: 1; stroke-width: 17.9694px; stroke: rgb(178, 71, 99);" d="M 3792.05 102.374 C 3747.027 101.608 3723.95 68.558 3697.484 116.298 C 3666.275 172.595 3872.745 237.576 3888.527 137.185 C 3896.942 83.658 3814.235 102.751 3792.05 102.374 Z" id="path7719-0"/>
    <path style="fill: rgb(213, 113, 139); fill-opacity: 1; stroke-width: 17.9694px; stroke: rgb(178, 71, 99);" d="M 2655.82 -87.869 C 2655.947 -138.05 2514.099 -149.412 2486.681 -102.159 C 2459.088 -54.604 2655.614 -6.532 2655.82 -87.869 Z" id="path7719-0-0"/>
  </g>
</svg>