<?xml version="1.0" encoding="utf-8"?>
<svg viewBox="0 0 100 100" xmlns="http://www.w3.org/2000/svg">
  <ellipse style="stroke-width: 3px; stroke: rgb(207, 75, 75); fill: rgb(236, 135, 135); transform-box: fill-box; transform-origin: 50% 50%;" cx="50" cy="50" rx="48.109" ry="26.535" transform="matrix(0, 1, -1, 0, 0.000008, 0)"/>
  <path style="stroke: rgb(208, 75, 75); fill: rgb(255, 174, 174); stroke-width: 2px; transform-box: fill-box; transform-origin: 50% 50%;" d="M 73.498 44.326 C 76.792 43.887 74.072 31.056 81.619 35.716 C 91.24 41.657 80.146 43.782 82.979 45.385 C 86.658 47.466 92.353 40.223 92.971 49.251 C 93.208 52.709 92.903 55.559 86.835 60.342 C 85.443 61.44 83.628 50.996 82.305 52.176 C 79.384 54.781 87.983 64.033 78.414 66.976 C 71.257 69.177 76.896 55.646 74.598 56.548 C 69.298 58.627 72.396 70.623 64.686 71.416 C 58.814 72.02 63.888 57.204 63.339 51.327 C 63.142 49.222 60.764 50.637 59.241 50.512 C 56.914 50.321 56.569 50.292 55.489 52.742 C 52.77 58.911 57.703 73.746 50.969 73.424 C 35.43 72.681 47.076 59.727 46.475 55.308 C 46.271 53.809 47.076 52.107 44.057 51.466 C 42.546 51.145 41.35 53.175 40.558 54.5 C 37.725 59.238 38.756 70.428 33.332 69.401 C 19.708 66.822 37.961 54.603 30.461 55.092 C 27.781 55.267 25.183 57.075 23.522 59.185 C 22.376 60.642 17.981 64.316 17.125 62.672 C 14.539 57.708 22.953 51.3 18.029 48.639 C 14.318 46.634 12.101 59.018 8.45 56.906 C 0.764 52.459 5.932 38.535 23.192 31.686 C 27.273 30.067 20.9 45.942 25.18 46.923 C 31.102 48.281 27.946 34.881 29.048 32.996 C 31.89 28.136 34.005 29.067 36.534 29.344 C 40.865 29.818 32.315 45.377 36.563 44.41 C 42.448 43.07 34.565 25.551 49.318 26.222 C 66.55 27.006 48.085 43.835 52.98 44.294 C 57.001 44.671 59.655 30.528 63.667 30.07 C 68.989 29.462 72.283 31.382 72.684 32.512 C 73.971 36.138 69.423 44.516 73.498 44.326 Z" transform="matrix(0, 1, -1, 0, 0, -0.000003)"/>
</svg>