<?xml version="1.0" encoding="utf-8"?>
<svg viewBox="0 0 100 100" xmlns="http://www.w3.org/2000/svg">
  <g>
    <path stroke-width="0" d="M 54.309 51.076 C 55.779 51.656 55.246 54.456 56.465 55.501 C 59.692 58.27 65.435 56.86 66.171 62.914 C 68.165 79.32 26.682 79.372 28.771 62.601 C 29.31 58.272 37.946 57.035 40.927 54.013 C 42.049 52.875 42.851 50.12 44.394 49.913 C 48.655 49.341 50.285 49.489 54.309 51.076 Z" style="stroke-width: 2px; stroke: rgb(255, 175, 84); fill: rgb(255, 196, 131);"/>
    <path stroke-width="0" d="M 66.02 21.813 C 73.668 28.806 76.848 47.206 68.464 52.961 C 64.022 56.009 60.314 56.176 59.242 52.358 C 57.153 44.909 57.487 44.563 54.742 43.79 C 51.938 43.001 42.636 42.73 40.227 44.568 C 38.34 46.007 39.326 50.867 37.145 51.554 C 32.872 52.902 32.586 52.381 28.874 49.585 C 16.822 40.503 26.603 28.008 30.346 24.367 C 37.168 17.729 53.878 10.712 66.02 21.813 Z" style="stroke-width: 2px; stroke: rgb(71, 94, 189); fill: rgb(102, 127, 230);"/>
  </g>
</svg>