<?xml version="1.0" encoding="utf-8"?>
<svg viewBox="0 0 100 100" xmlns="http://www.w3.org/2000/svg">
  <g>
    <ellipse style="stroke: rgb(255, 146, 48); fill: rgb(255, 173, 100);" cx="50" cy="50" rx="25.882" ry="25.882"/>
    <ellipse style="fill: rgb(252, 206, 58); stroke: rgb(233, 187, 41);" cx="50" cy="50" rx="23.1" ry="23.1"/>
    <ellipse style="fill: rgb(255, 173, 101); stroke: rgb(255, 146, 48);" cx="50" cy="50" rx="7.909" ry="7.909"/>
    <path style="fill: none; stroke: rgb(255, 146, 48);" d="M 30.958 48.227 C 32.13 48.171 34.241 49.209 34.475 48.059 C 34.917 45.888 33.762 43.428 32.27 41.79 C 31.675 41.137 30.525 43.08 30.723 43.94 C 31.532 47.463 43.621 40.873 38.163 39.131 C 32.078 37.189 37.499 43.945 37.548 44.558 C 37.616 45.402 36.155 45.881 36.223 46.725 C 36.558 50.904 35.574 57.594 37.414 61.362 C 37.935 62.43 40.636 59.005 39.555 58.511 C 37.367 57.51 30.932 57.109 32.356 59.049 C 34.825 62.413 39.712 63.186 43.752 64.229 C 44.77 64.492 45.496 62.447 46.515 62.706 C 47.246 62.892 47.102 64.361 46.65 64.966 C 45.026 67.141 36.146 63.566 38.775 62.889 C 43.206 61.748 49.021 65.621 53.338 64.104 C 58.816 62.179 50.084 54.894 48.65 65.634 C 48.011 70.419 57.909 71.776 58.512 67.905 C 58.75 66.38 56.95 65.237 56.303 63.835 C 55.814 62.775 58.55 65.999 59.483 65.299 C 60.131 64.813 59.651 63.688 59.735 62.882"/>
  </g>
</svg>